<svg id="Layer_1" data-name="Layer 1" xmlns="http://www.w3.org/2000/svg" viewBox="0 0 212.56 105.17"><defs><style>.cls-1{fill:#fdba57;}.cls-2{fill:#4b55a4;}.cls-3{fill:#fff;}</style></defs><path class="cls-1" d="M343,304.31l13.87,7.37a47,47,0,0,0,3.9-18.8,48.12,48.12,0,0,0-.62-7.64l0,.24a40.51,40.51,0,0,1-5,1.14,30,30,0,0,1-4.57.39,17,17,0,0,1-6.07-1l-.06,0A31.72,31.72,0,0,1,343,304.31Z" transform="translate(-181.72 -235)"/><path class="cls-1" d="M303,322.77a31.77,31.77,0,0,1-17.56-15.08l0,.14c-.05.28-.1.54-.16.79H273.79a4.4,4.4,0,0,0,.23,1.23,2.44,2.44,0,0,0,.69,1,3.39,3.39,0,0,0,1.32.65,7.93,7.93,0,0,0,2.12.23,12.58,12.58,0,0,0,2.51-.28,10.39,10.39,0,0,0,2.56-.84l-.71,4a25.26,25.26,0,0,1-3,.67,18.22,18.22,0,0,1-2.7.23,10.14,10.14,0,0,1-3.58-.59,7.79,7.79,0,0,1-2.42-1.43,47.46,47.46,0,0,0,27,24.08Z" transform="translate(-181.72 -235)"/><path class="cls-1" d="M341.85,306.82a31.64,31.64,0,0,1-28.42,17.71,31.26,31.26,0,0,1-7.79-1l-5.21,14.81a47.29,47.29,0,0,0,55.23-24.2Z" transform="translate(-181.72 -235)"/><path class="cls-2" d="M200.87,247.75h17.82a19.06,19.06,0,0,1,3.56.37,12.91,12.91,0,0,1,4,1.48,9.69,9.69,0,0,1,3.31,3.16,9.45,9.45,0,0,1,1.37,5.23,10.55,10.55,0,0,1-.83,4.16,10.27,10.27,0,0,1-2.36,3.42,11.67,11.67,0,0,1-2.89,2,10.47,10.47,0,0,1,1,.78,8,8,0,0,1,2.57,6.19,11.91,11.91,0,0,1-5.18,10.18,16.44,16.44,0,0,1-5.38,2.41,27.53,27.53,0,0,1-6.36.82l-19,.24Zm7.59,29.86a11.84,11.84,0,0,0,5.21-.94,2.19,2.19,0,0,0,1.27-2.22,2,2,0,0,0-.17-1,.91.91,0,0,0-.49-.39,5.3,5.3,0,0,0-1.58-.38,27,27,0,0,0-2.71-.12h-.91L208,277.61Zm4.27-15.3a7.13,7.13,0,0,0,3.84-.83,1.69,1.69,0,0,0,.9-1.54,1.63,1.63,0,0,0-.15-.81,1,1,0,0,0-.45-.36,5.48,5.48,0,0,0-1.42-.34,20.13,20.13,0,0,0-2.3-.12h-1.07l-.83,4Z" transform="translate(-181.72 -235)"/><path class="cls-3" d="M202.34,249.55h16.35a17.15,17.15,0,0,1,3.22.34,10.91,10.91,0,0,1,3.41,1.27,7.79,7.79,0,0,1,2.69,2.58,7.68,7.68,0,0,1,1.08,4.25,8.72,8.72,0,0,1-.69,3.46,8.31,8.31,0,0,1-2,2.82,10.42,10.42,0,0,1-3.06,2,14.31,14.31,0,0,1-4,1.05v.11a9.51,9.51,0,0,1,5.15,2.27,6.21,6.21,0,0,1,2,4.85,10.13,10.13,0,0,1-4.41,8.71,14.43,14.43,0,0,1-4.8,2.13,25.53,25.53,0,0,1-5.94.77l-16.78.21Zm3.48,29.86h2.64a13.47,13.47,0,0,0,6-1.13,4,4,0,0,0,2.27-3.83,3.77,3.77,0,0,0-.42-1.92,2.73,2.73,0,0,0-1.29-1.11,7.13,7.13,0,0,0-2.14-.53,27.69,27.69,0,0,0-2.9-.13h-2.38Zm3.22-15.3h3.69a8.76,8.76,0,0,0,4.83-1.13,3.49,3.49,0,0,0,1.71-3,3.29,3.29,0,0,0-.44-1.79,2.79,2.79,0,0,0-1.24-1,6.58,6.58,0,0,0-1.93-.47,21.3,21.3,0,0,0-2.51-.14h-2.53Z" transform="translate(-181.72 -235)"/><path class="cls-2" d="M239.64,288.81a10.55,10.55,0,0,1-4.42-.9,9.62,9.62,0,0,1-3.31-2.47,10.55,10.55,0,0,1-2-3.63,14.31,14.31,0,0,1-.64-4.29c0-.49,0-.94,0-1.36s.06-.88.12-1.37.15-1,.26-1.57.23-1.12.36-1.85l2.83-14.28h13.5l-3.08,15-.43,2.09a9,9,0,0,0-.17,1.72,1.72,1.72,0,0,0,.1.6,1,1,0,0,0,.24.37,1.53,1.53,0,0,0,.51.31,2.19,2.19,0,0,0,.72.1h.23a4.26,4.26,0,0,0,2-.42,4.61,4.61,0,0,0,1.51-1.19,7.26,7.26,0,0,0,1.17-1.94,11.29,11.29,0,0,0,.73-2.5l3-14.16h13.17l-4.73,22.48c-.24,1.17-.46,2.35-.64,3.49s-.36,2.33-.49,3.52l-.19,1.6H247.49l.28-1.69c-.35.24-.71.47-1.08.68A13.88,13.88,0,0,1,239.64,288.81Z" transform="translate(-181.72 -235)"/><path class="cls-3" d="M259.59,279.2c-.25,1.2-.47,2.39-.66,3.56s-.36,2.39-.5,3.62h-8.81l.73-4.49h-.1a18.14,18.14,0,0,1-4.46,3.72,12,12,0,0,1-6.15,1.4,8.55,8.55,0,0,1-3.66-.74,7.69,7.69,0,0,1-2.7-2,8.66,8.66,0,0,1-1.63-3,12.27,12.27,0,0,1-.56-3.75q0-.67,0-1.26c0-.39,0-.8.11-1.24s.13-.92.23-1.43.23-1.13.37-1.87l2.54-12.82h9.81l-2.64,12.87c-.14.71-.28,1.4-.42,2.09a10.34,10.34,0,0,0-.21,2.08,3.6,3.6,0,0,0,.21,1.22,2.72,2.72,0,0,0,.66,1,3.32,3.32,0,0,0,1.13.72,4.32,4.32,0,0,0,1.69.21,5.85,5.85,0,0,0,2.69-.61,6.53,6.53,0,0,0,2.09-1.63,9.42,9.42,0,0,0,1.45-2.41,12.6,12.6,0,0,0,.84-2.9l2.69-12.66h9.5Z" transform="translate(-181.72 -235)"/><path class="cls-2" d="M276.16,288.81a11.23,11.23,0,0,1-4.87-1.07,11.89,11.89,0,0,1-3.82-2.89,13.25,13.25,0,0,1-2.47-4.18,14.33,14.33,0,0,1-.88-5,26.59,26.59,0,0,1,.91-7,18.54,18.54,0,0,1,2.86-6.14,15,15,0,0,1,4.94-4.41,14.32,14.32,0,0,1,7-1.68,13.64,13.64,0,0,1,7,1.68,11.83,11.83,0,0,1,1.65,1.16L291.36,245h13l-7.84,37.63a16.91,16.91,0,0,0-.34,2.06c-.08.7-.15,1.34-.22,1.91l-.2,1.58H283.37l.21-1.25-.48.29a11.12,11.12,0,0,1-3.1,1.2A17.13,17.13,0,0,1,276.16,288.81Zm6.75-21.47a4.2,4.2,0,0,0-2.13.51,5.42,5.42,0,0,0-1.7,1.46A7.09,7.09,0,0,0,278,271.5a8.25,8.25,0,0,0-.42,2.58,5.08,5.08,0,0,0,.79,3,2.13,2.13,0,0,0,1.95.82,3.63,3.63,0,0,0,2-.56,6.44,6.44,0,0,0,1.76-1.65,8.34,8.34,0,0,0,1.17-2.28,7.42,7.42,0,0,0,.41-2.31,6,6,0,0,0-.21-1.55,3.67,3.67,0,0,0-.55-1.22,2.41,2.41,0,0,0-.85-.76A2.15,2.15,0,0,0,282.91,267.34Z" transform="translate(-181.72 -235)"/><path class="cls-3" d="M286.24,282h-.11a19,19,0,0,1-1.85,2.08,10.62,10.62,0,0,1-2.08,1.59,9.52,9.52,0,0,1-2.61,1,15.25,15.25,0,0,1-3.43.34,9.45,9.45,0,0,1-4.09-.89,10.17,10.17,0,0,1-3.25-2.46,11.34,11.34,0,0,1-2.13-3.61,12.23,12.23,0,0,1-.77-4.38,25.12,25.12,0,0,1,.84-6.52,17.28,17.28,0,0,1,2.59-5.57,13.13,13.13,0,0,1,4.35-3.87,12.43,12.43,0,0,1,6.15-1.46,11.83,11.83,0,0,1,6.07,1.43,8.38,8.38,0,0,1,3.48,3.64h.11l3.32-16.52h9.34l-7.39,35.46a21.85,21.85,0,0,0-.37,2.25c-.07.68-.14,1.31-.21,1.87h-8.7Zm-3-3.11a8.34,8.34,0,0,0,2.24-2.11A10.26,10.26,0,0,0,287,274a9.24,9.24,0,0,0,.5-2.88,8.15,8.15,0,0,0-.26-2,5.74,5.74,0,0,0-.82-1.79,4.33,4.33,0,0,0-1.43-1.29,3.94,3.94,0,0,0-2-.5,6,6,0,0,0-3,.74,7.38,7.38,0,0,0-2.24,1.92,8.91,8.91,0,0,0-1.42,2.74,10.07,10.07,0,0,0-.51,3.14,6.74,6.74,0,0,0,1.14,4.09,3.94,3.94,0,0,0,3.4,1.56A5.48,5.48,0,0,0,283.28,278.89Z" transform="translate(-181.72 -235)"/><path class="cls-2" d="M311.88,299.89a32.13,32.13,0,0,1-6.44-.56c-1.7-.36-3.33-.79-4.86-1.26l-1.62-.5,2.84-11.36,2.06,1.2a14.37,14.37,0,0,0,7.09,1.92h.44a12.16,12.16,0,0,0,3.26-.38,5.38,5.38,0,0,0,2.24-1.21,4.3,4.3,0,0,0,.54-.58,12.46,12.46,0,0,1-5.08,1,14.17,14.17,0,0,1-5.68-1.07,11.37,11.37,0,0,1-4.16-3.08,12.6,12.6,0,0,1-2.43-4.6,20.08,20.08,0,0,1,.4-12.2,17.13,17.13,0,0,1,3.33-5.56,15.73,15.73,0,0,1,5.24-3.81,16.24,16.24,0,0,1,6.79-1.41,14.26,14.26,0,0,1,6.55,1.52,9.22,9.22,0,0,1,2.24,1.62l.61-2.5h12.51l-.53,2.22c-.19.79-.45,1.74-.76,2.83s-.65,2.34-1,3.76l-4.22,18.71a33.94,33.94,0,0,1-2.29,7.05,13,13,0,0,1-9.47,7.53A35.45,35.45,0,0,1,311.88,299.89Zm5.91-32.55a4.05,4.05,0,0,0-2.15.52,5.34,5.34,0,0,0-1.6,1.5,6.91,6.91,0,0,0-1,2.17,9.8,9.8,0,0,0-.34,2.5,3.29,3.29,0,0,0,.87,2.39,2.89,2.89,0,0,0,2.29.88,3.92,3.92,0,0,0,2.14-.56,5.9,5.9,0,0,0,1.68-1.62,7,7,0,0,0,1-2.21,9.64,9.64,0,0,0,.34-2.41,3.33,3.33,0,0,0-.79-2.37A3.27,3.27,0,0,0,317.79,267.34Z" transform="translate(-181.72 -235)"/><path class="cls-3" d="M303,289a16.06,16.06,0,0,0,8,2.17,14.63,14.63,0,0,0,4.22-.45,7.27,7.27,0,0,0,3-1.61,8.26,8.26,0,0,0,2-2.93,26.35,26.35,0,0,0,1.34-4.46l-.1-.1a11.08,11.08,0,0,1-3.86,3.56,10.45,10.45,0,0,1-5.11,1.24,12.45,12.45,0,0,1-5-.92,9.51,9.51,0,0,1-3.5-2.59,10.88,10.88,0,0,1-2.09-4,17.45,17.45,0,0,1-.68-5,17.23,17.23,0,0,1,1.05-6,15.37,15.37,0,0,1,3-5,14.11,14.11,0,0,1,4.65-3.38,14.46,14.46,0,0,1,6-1.24,12.27,12.27,0,0,1,5.72,1.32,8,8,0,0,1,3.78,4.33h.1l1.21-5h8.82c-.18.74-.42,1.65-.74,2.74s-.65,2.38-1,3.85l-4.23,18.74a31.3,31.3,0,0,1-2.16,6.67,11.15,11.15,0,0,1-8.23,6.54,33.75,33.75,0,0,1-7.23.66,29.89,29.89,0,0,1-6.07-.52c-1.65-.36-3.22-.76-4.69-1.22Zm18.63-22a4.91,4.91,0,0,0-3.8-1.37,5.8,5.8,0,0,0-3.09.79,7,7,0,0,0-2.13,2,8.29,8.29,0,0,0-1.24,2.75,11.48,11.48,0,0,0-.4,2.95,5.12,5.12,0,0,0,1.35,3.62,4.7,4.7,0,0,0,3.61,1.45,5.58,5.58,0,0,0,3.11-.85,7.47,7.47,0,0,0,2.19-2.11,8.62,8.62,0,0,0,1.27-2.77,11.45,11.45,0,0,0,.4-2.87A5.09,5.09,0,0,0,321.59,266.91Z" transform="translate(-181.72 -235)"/><path class="cls-2" d="M350.45,288.81a18.68,18.68,0,0,1-6.7-1.12l-.15-.06a14.79,14.79,0,0,1-4.88-3,13,13,0,0,1-3.16-4.62,15,15,0,0,1-1.05-5.56,18.28,18.28,0,0,1,.36-3.43,23.47,23.47,0,0,1,.56-2.3,17,17,0,0,1,3.12-5.89,17.61,17.61,0,0,1,5.66-4.54,17,17,0,0,1,1.81-.78,20.17,20.17,0,0,1,6.75-1.06,18.8,18.8,0,0,1,5.55.8,13.16,13.16,0,0,1,4.67,2.51,11.61,11.61,0,0,1,3.16,4.39,15.82,15.82,0,0,1,1.09,6.08c0,.33,0,.73-.06,1.21s-.1.94-.17,1.46l-.21,1.42c-.08.53-.18,1-.3,1.52l-.34,1.36h-2.77l-1.76,9.7-1.07.31a41.79,41.79,0,0,1-5.26,1.18A31.19,31.19,0,0,1,350.45,288.81Zm-2.93-11.61a2.24,2.24,0,0,0,.5.62,4,4,0,0,0,1.54.73,12,12,0,0,0,3.11.33,20,20,0,0,0,3.89-.44,17.55,17.55,0,0,0,1.76-.45,16,16,0,0,0,2.07-.79Zm8-9a3.21,3.21,0,0,0-.46-1,1.93,1.93,0,0,0-.76-.62,3.29,3.29,0,0,0-1.4-.24,7,7,0,0,0-1.15.09,4.73,4.73,0,0,0-.9.25,5.23,5.23,0,0,0-1.54.93,4.15,4.15,0,0,0-.55.56Z" transform="translate(-181.72 -235)"/><path class="cls-3" d="M364.49,264.85a9.61,9.61,0,0,0-2.67-3.72,11.18,11.18,0,0,0-4-2.16,16.87,16.87,0,0,0-5-.72,18.24,18.24,0,0,0-6.14,1,12.67,12.67,0,0,0-1.59.68A15.87,15.87,0,0,0,340,264a15.48,15.48,0,0,0-2.8,5.28c-.21.74-.38,1.44-.51,2.13a16.52,16.52,0,0,0-.33,3.09,13.12,13.12,0,0,0,.92,4.89,11.26,11.26,0,0,0,2.72,4,13.12,13.12,0,0,0,4.37,2.66l.06,0a17,17,0,0,0,6.07,1,30,30,0,0,0,4.57-.39,40.51,40.51,0,0,0,5-1.14l0-.24,1.17-6.46a18.93,18.93,0,0,1-2.42.93c-.63.19-1.27.36-1.93.5a22.13,22.13,0,0,1-4.25.47,13.42,13.42,0,0,1-3.59-.4,5.65,5.65,0,0,1-2.24-1.1,4,4,0,0,1-1.16-1.69,7.45,7.45,0,0,1-.4-2.09h19.47a12.69,12.69,0,0,0,.27-1.34l.21-1.43c.07-.47.12-.92.16-1.34s.05-.78.05-1.06A14,14,0,0,0,364.49,264.85ZM354.83,270h-9a8.39,8.39,0,0,1,.82-2,6.74,6.74,0,0,1,1.42-1.74,7.29,7.29,0,0,1,2.06-1.24,6.84,6.84,0,0,1,1.26-.35,8.38,8.38,0,0,1,1.46-.12,5,5,0,0,1,2.19.42,3.74,3.74,0,0,1,1.42,1.19,5,5,0,0,1,.8,1.74,9.21,9.21,0,0,1,.23,2.08Z" transform="translate(-181.72 -235)"/><path class="cls-2" d="M380.85,288.81a14.51,14.51,0,0,1-3.92-.51,8.76,8.76,0,0,1-5.75-5,10.81,10.81,0,0,1-.84-4.43,16,16,0,0,1,.21-2.52c.13-.84.35-2,.67-3.51l1.18-5.52h-5l1.79-10.25h5.51l1.24-5.57,13.94-3.74-2.05,9.31h6.44l-1.79,10.25h-7l-1.33,6.22c-.21,1-.4,1.9-.55,2.64a7.81,7.81,0,0,0-.2,1.74,1.24,1.24,0,0,0,.31.94,1.28,1.28,0,0,0,1,.32,3.14,3.14,0,0,0,1-.17l1.5-.52,2.89-1L388.32,288l-1.26.22c-1.06.18-2.12.32-3.15.41S381.84,288.81,380.85,288.81Z" transform="translate(-181.72 -235)"/><path class="cls-3" d="M370.72,258.89h5.43l1.32-5.91,10-2.69-1.89,8.6h6.54L391,265.54h-6.91l-1.64,7.65c-.21,1-.4,1.9-.55,2.64a9.9,9.9,0,0,0-.24,2.11,3,3,0,0,0,.84,2.21,3,3,0,0,0,2.27.85,4.75,4.75,0,0,0,1.53-.27c.53-.17,1-.35,1.53-.52l-1.05,6.28c-1,.17-2,.3-3,.39s-1.95.13-2.9.13a12.43,12.43,0,0,1-3.43-.45,6.89,6.89,0,0,1-4.59-4,8.94,8.94,0,0,1-.69-3.69,15.11,15.11,0,0,1,.18-2.25c.13-.79.35-1.92.66-3.4l1.64-7.7h-5.07Z" transform="translate(-181.72 -235)"/><path class="cls-2" d="M190.7,317.27a21.36,21.36,0,0,1-3.82-.37,32.68,32.68,0,0,1-3.43-.83l-1.73-.53,2.61-8.4,2,1.27a3.46,3.46,0,0,0,.72.35,8.06,8.06,0,0,0,1.08.31,13,13,0,0,0,1.32.22,9.17,9.17,0,0,0,1.26.08,10.23,10.23,0,0,0,1.29-.08,4.49,4.49,0,0,0,1.08-.25,1.27,1.27,0,0,0,.46-.3.85.85,0,0,0,0-.15,3.52,3.52,0,0,0-1.1-.69c-.59-.25-1.25-.52-2-.79a11.81,11.81,0,0,1-2.4-1.23,7.16,7.16,0,0,1-2.08-2.13,6.47,6.47,0,0,1-.9-3.47,8.48,8.48,0,0,1,1.1-4.42A8.33,8.33,0,0,1,189,293a11.35,11.35,0,0,1,3.7-1.42,18.7,18.7,0,0,1,3.87-.4,33.89,33.89,0,0,1,4,.23,10.58,10.58,0,0,1,3.43.92l1.41.68-2.52,7.78-1.85-.89a8.5,8.5,0,0,0-1.67-.58,9.77,9.77,0,0,0-2.35-.24,13.29,13.29,0,0,0-1.45.07,3.1,3.1,0,0,0-.8.17,8.58,8.58,0,0,0,1,.51l2,.82A10.32,10.32,0,0,1,200.2,302a7.62,7.62,0,0,1,2.05,2.28,7.13,7.13,0,0,1,.87,3.62,8.49,8.49,0,0,1-1.24,4.69,8.77,8.77,0,0,1-3.11,2.91,13,13,0,0,1-4,1.4A23.68,23.68,0,0,1,190.7,317.27Z" transform="translate(-181.72 -235)"/><path class="cls-3" d="M201.85,298.28a10.89,10.89,0,0,0-2-.7,11.9,11.9,0,0,0-2.79-.29c-.58,0-1.12,0-1.63.07a4.9,4.9,0,0,0-1.33.32,2.08,2.08,0,0,0-.88.63,1.64,1.64,0,0,0-.33,1.06,1.5,1.5,0,0,0,.62,1.25,8,8,0,0,0,1.56.87q.93.4,2,.84a9.62,9.62,0,0,1,2,1.12,5.78,5.78,0,0,1,1.55,1.74,5.25,5.25,0,0,1,.63,2.71,6.72,6.72,0,0,1-.95,3.71,7.07,7.07,0,0,1-2.48,2.32,11,11,0,0,1-3.41,1.2,21.78,21.78,0,0,1-3.78.34,19.52,19.52,0,0,1-3.49-.34,31.39,31.39,0,0,1-3.23-.78l1.37-4.42a5.71,5.71,0,0,0,1.05.51,8.74,8.74,0,0,0,1.34.39c.48.1,1,.19,1.48.25a12.63,12.63,0,0,0,1.48.09,13.47,13.47,0,0,0,1.49-.09,6,6,0,0,0,1.51-.36,2.81,2.81,0,0,0,1.17-.78,1.93,1.93,0,0,0,.47-1.35,1.76,1.76,0,0,0-.62-1.4,6.45,6.45,0,0,0-1.56-.94c-.62-.27-1.3-.54-2-.82a10.29,10.29,0,0,1-2-1,5.45,5.45,0,0,1-1.56-1.61,4.63,4.63,0,0,1-.62-2.5,6.68,6.68,0,0,1,.84-3.49,6.49,6.49,0,0,1,2.21-2.24,9.66,9.66,0,0,1,3.12-1.2,17.28,17.28,0,0,1,3.51-.36,30.26,30.26,0,0,1,3.8.22,8.89,8.89,0,0,1,2.87.75Z" transform="translate(-181.72 -235)"/><polygon class="cls-2" points="18.21 81.9 22.32 62.08 22.32 62.08 23.76 55.32 33.1 55.32 31.47 63.03 31.46 63.03 27.55 81.9 18.21 81.9"/><path class="cls-3" d="M205.5,298.87h5.67l-3.36,16.23h-5.67Zm1.44-6.75h5.66l-.87,4.11h-5.67Z" transform="translate(-181.72 -235)"/><path class="cls-2" d="M228.67,316.9l2.06-10a9.83,9.83,0,0,0,.22-1.11q0-.44.06-.78h0a.66.66,0,0,0-.33.07,1.74,1.74,0,0,0-.49.58,4.63,4.63,0,0,0-.43,1.05c-.13.47-.24.9-.31,1.29l-1.9,8.94h-9.27l2.07-10c.1-.42.16-.77.21-1.11s0-.55.06-.78h0a.68.68,0,0,0-.33.07,1.74,1.74,0,0,0-.49.58,5,5,0,0,0-.43,1.06c-.13.46-.23.89-.31,1.28l-1.9,8.94h-9.28l3-14.16c.14-.68.27-1.35.38-2s.2-1.35.28-2.05l.18-1.59h8.81l0,.19a8,8,0,0,1,3-.57,6.54,6.54,0,0,1,1.91.28,6.2,6.2,0,0,1,1.81.88,5.58,5.58,0,0,1,.93.82,9.37,9.37,0,0,1,1.23-.86,8.2,8.2,0,0,1,4.17-1.12,8.71,8.71,0,0,1,2.32.32,6.34,6.34,0,0,1,2.25,1.12,5.8,5.8,0,0,1,1.67,2.15,7.17,7.17,0,0,1,.61,3c0,.59,0,1.25-.1,2a18.13,18.13,0,0,1-.32,2.06l-2,9.55Z" transform="translate(-181.72 -235)"/><path class="cls-3" d="M212.6,303.11q.22-1.07.39-2.1c.12-.7.21-1.41.3-2.14h5l-.62,3,.06,0a7.48,7.48,0,0,1,2.52-2.43,6.29,6.29,0,0,1,3.21-.87,5.09,5.09,0,0,1,1.4.2,4.49,4.49,0,0,1,1.28.63,4.25,4.25,0,0,1,1,1,3.68,3.68,0,0,1,.57,1.45,7.67,7.67,0,0,1,2.52-2.43,6.4,6.4,0,0,1,3.27-.87,6.7,6.7,0,0,1,1.84.25,4.75,4.75,0,0,1,1.62.81,4,4,0,0,1,1.15,1.49,5.39,5.39,0,0,1,.44,2.28,16.92,16.92,0,0,1-.1,1.79,14.65,14.65,0,0,1-.28,1.85l-1.68,8.13h-5.6l1.62-7.88a11,11,0,0,0,.23-1.25,9.49,9.49,0,0,0,.08-1.12,1.75,1.75,0,0,0-.41-1.24,1.85,1.85,0,0,0-1.4-.44,2.25,2.25,0,0,0-1.44.45,3.68,3.68,0,0,0-.95,1.12,6.91,6.91,0,0,0-.6,1.45c-.14.52-.26,1-.34,1.43l-1.59,7.48h-5.6l1.62-7.88a11,11,0,0,0,.23-1.25,9.49,9.49,0,0,0,.08-1.12,1.75,1.75,0,0,0-.4-1.24,1.87,1.87,0,0,0-1.41-.44,2.25,2.25,0,0,0-1.44.45,3.68,3.68,0,0,0-.95,1.12,6.39,6.39,0,0,0-.59,1.45c-.15.52-.26,1-.35,1.43l-1.58,7.48h-5.61Z" transform="translate(-181.72 -235)"/><path class="cls-2" d="M235.29,323.43l5-22.52c.08-.4.14-.78.18-1.12s.09-.79.13-1.14l.2-1.57h8.85l0,.3a8.9,8.9,0,0,1,3.37-.68,8,8,0,0,1,3.39.7,7,7,0,0,1,2.52,1.94,8.29,8.29,0,0,1,1.46,2.72,10.47,10.47,0,0,1,.47,3.14,16,16,0,0,1-.58,4.32,12.07,12.07,0,0,1-1.83,3.86,9.41,9.41,0,0,1-3.28,2.82,9.8,9.8,0,0,1-4.64,1.07,7.48,7.48,0,0,1-4.06-1.06l-.15-.1-1.63,7.32Zm15.26-18.83a1.47,1.47,0,0,0-.8.21,3,3,0,0,0-.84.79,4.41,4.41,0,0,0-.59,1.14,3.8,3.8,0,0,0-.2,1.13,3.16,3.16,0,0,0,.09.76,1.33,1.33,0,0,0,.22.48.66.66,0,0,0,.23.21.82.82,0,0,0,.34.05,1.77,1.77,0,0,0,.89-.2,2.67,2.67,0,0,0,.78-.67,3.39,3.39,0,0,0,.55-1.07,4.21,4.21,0,0,0,.21-1.3,2.34,2.34,0,0,0-.32-1.35C251.06,304.71,251,304.6,250.55,304.6Z" transform="translate(-181.72 -235)"/><path class="cls-3" d="M242.05,301.3a10.36,10.36,0,0,0,.22-1.32c0-.4.08-.77.13-1.11h5.13l-.43,2.59h.06a7.87,7.87,0,0,1,2.8-2.27,7.15,7.15,0,0,1,3-.69,6.2,6.2,0,0,1,2.63.53,5.14,5.14,0,0,1,1.88,1.45,6.41,6.41,0,0,1,1.14,2.13,8.39,8.39,0,0,1,.39,2.58,14.42,14.42,0,0,1-.51,3.85,10.16,10.16,0,0,1-1.56,3.28,7.66,7.66,0,0,1-2.66,2.29,8,8,0,0,1-3.8.86,5.68,5.68,0,0,1-3.1-.78,6.7,6.7,0,0,1-2.13-2.3l-2.06,9.24h-5.66Zm4.42,7.79a3.38,3.38,0,0,0,.49,1.05,2.27,2.27,0,0,0,.82.75,2.42,2.42,0,0,0,1.22.28,3.57,3.57,0,0,0,1.77-.43,4.26,4.26,0,0,0,1.32-1.14,5,5,0,0,0,.84-1.62,5.92,5.92,0,0,0,.3-1.85,4,4,0,0,0-.67-2.41,2.32,2.32,0,0,0-2-.92,3.15,3.15,0,0,0-1.77.5,4.91,4.91,0,0,0-1.33,1.24,6.06,6.06,0,0,0-.84,1.64,5.51,5.51,0,0,0-.29,1.69A5,5,0,0,0,246.47,309.09Z" transform="translate(-181.72 -235)"/><polygon class="cls-2" points="75.34 81.9 80.95 54.95 90.29 54.95 84.69 81.9 75.34 81.9"/><path class="cls-3" d="M264.13,291.75h5.67l-4.86,23.35h-5.66Z" transform="translate(-181.72 -235)"/><path class="cls-2" d="M276.84,317.27a11.89,11.89,0,0,1-4.22-.71,9.91,9.91,0,0,1-3-1.75l-.24-.21a8.33,8.33,0,0,1-2.05-3,9.58,9.58,0,0,1-.67-3.55c0-.12,0-.24,0-.37v-.1a13.06,13.06,0,0,1,.55-3.13,11,11,0,0,1,2-3.72,11.15,11.15,0,0,1,3.58-2.87,11.53,11.53,0,0,1,5.39-1.17,11.92,11.92,0,0,1,3.49.5,8.63,8.63,0,0,1,1.63.68,8.83,8.83,0,0,1,1.38.94,7.58,7.58,0,0,1,2.07,2.88,9.9,9.9,0,0,1,.7,3.87c0,.2,0,.46,0,.77s-.06.59-.11.91l-.1.7-1.68-.12h0l1.67.25c-.06.34-.12.66-.2,1l-.34,1.36h-1.59l-1,5.56-1.07.31a23.33,23.33,0,0,1-3.2.72A19.16,19.16,0,0,1,276.84,317.27Z" transform="translate(-181.72 -235)"/><path class="cls-3" d="M276.84,315.47a18.22,18.22,0,0,0,2.7-.23,25.26,25.26,0,0,0,3-.67l.71-4a10.39,10.39,0,0,1-2.56.84,12.58,12.58,0,0,1-2.51.28,7.93,7.93,0,0,1-2.12-.23,3.39,3.39,0,0,1-1.32-.65,2.44,2.44,0,0,1-.69-1,4.4,4.4,0,0,1-.23-1.23h11.49c.06-.25.11-.51.16-.79l0-.14c0-.24.06-.47.1-.71s.07-.54.09-.79,0-.46,0-.62a8.11,8.11,0,0,0-.56-3.18,5.6,5.6,0,0,0-1.57-2.19,6.25,6.25,0,0,0-1.08-.74,7.55,7.55,0,0,0-1.3-.54,10,10,0,0,0-3-.42,9.73,9.73,0,0,0-4.56,1,9.25,9.25,0,0,0-3,2.39A9,9,0,0,0,269,305a10.77,10.77,0,0,0-.48,2.69c0,.13,0,.26,0,.39a7.68,7.68,0,0,0,.54,2.88,6.58,6.58,0,0,0,1.61,2.35l.19.16a7.79,7.79,0,0,0,2.42,1.43A10.14,10.14,0,0,0,276.84,315.47Zm-2.22-11.19a3.59,3.59,0,0,1,.84-1,4,4,0,0,1,1.21-.73,4.23,4.23,0,0,1,1.6-.28,3,3,0,0,1,1.3.25,2.2,2.2,0,0,1,.84.7,2.78,2.78,0,0,1,.46,1,4.94,4.94,0,0,1,.14,1.23h-6.88A5,5,0,0,1,274.62,304.28Z" transform="translate(-181.72 -235)"/><polygon class="cls-1" points="2.06 54.31 7.13 0 61.7 6.47 13.43 5.57 2.06 54.31"/></svg>